<?xml version="1.0" encoding="UTF-8" standalone="no"?>
<svg
   xmlns:dc="http://purl.org/dc/elements/1.1/"
   xmlns:cc="http://creativecommons.org/ns#"
   xmlns:rdf="http://www.w3.org/1999/02/22-rdf-syntax-ns#"
   xmlns:svg="http://www.w3.org/2000/svg"
   xmlns="http://www.w3.org/2000/svg"
   xmlns:xlink="http://www.w3.org/1999/xlink"
   version="1.1"
   id="svg4982"
   viewBox="0 0 602.00007 120"
   height="120"
   width="602">
  <defs
     id="defs4984">
    <linearGradient
       id="linearGradient4013">
      <stop
         id="stop4015"
         offset="0"
         style="stop-color:#ffffff;stop-opacity:1;" />
      <stop
         id="stop4017"
         offset="1"
         style="stop-color:#ffffff;stop-opacity:0;" />
    </linearGradient>
    <linearGradient
       gradientTransform="translate(89.903577,15.152288)"
       gradientUnits="userSpaceOnUse"
       y2="573.0448"
       x2="343.07306"
       y1="560.54413"
       x1="350.39667"
       id="linearGradient4397"
       xlink:href="#linearGradient4013" />
  </defs>
  <metadata
     id="metadata4987">
    <rdf:RDF>
      <cc:Work
         rdf:about="">
        <dc:format>image/svg+xml</dc:format>
        <dc:type
           rdf:resource="http://purl.org/dc/dcmitype/StillImage" />
        <dc:title></dc:title>
      </cc:Work>
    </rdf:RDF>
  </metadata>
  <g
     id="g222"
     transform="translate(0,-932.36238)"
     style="display:inline">
    <path
       id="path152-3"
       d="m 67.527688,974.72999 c -4.18141,0.35933 -7.4078,3.38337 -7.4078,7.04077 -0.0114,0.78381 10e-4,6.50405 0.005,9.26149 0,5.80474 2.13972,8.43075 8.76191,8.48813 h 3.51007 c 0.13049,0.005 0.25798,0.0134 0.39559,0.0134 h 14.81556 c 1.56019,0 2.70028,0.92572 2.70028,3.44522 v 1.9307 c 0,1.3768 -1.143,2.4758 -3.43573,2.4758 h -8.25741 -2.63124 -15.84309 v 10.0134 h 34.40768 c 0.28552,-10e-5 0.56644,0.024 0.844332,0 h 0.003 c 4.18012,-0.3604 7.40512,-3.3842 7.40512,-7.0408 0.0114,-0.7838 8.3e-4,-6.5041 -0.003,-9.2615 0,-5.80473 -2.14237,-8.43074 -8.764562,-8.48812 h -9.55312 l 0.0102,-0.0134 h -9.17875 c -1.56019,0 -2.6976,-0.92571 -2.6976,-3.4452 v -1.9307 c 0,-1.37684 1.14299,-2.47582 3.43573,-2.47582 h 8.25742 2.63122 15.843092 V 974.73 H 68.373898 c -0.28642,5e-5 -0.56822,-0.024 -0.84697,0 z"
       style="display:inline;fill:#018cc8;fill-opacity:1;stroke:none;stroke-width:1.25865734" />
    <path
       id="path146-6"
       d="m 107.8061,975.16651 v 9.57685 h 0.14797 v 0.18015 h 15.79119 c 0.0208,-3.2e-4 0.0398,-0.005 0.0607,-0.005 h 13.54024 c 1.80084,0.0164 3.18361,0.67743 3.18361,2.54853 0,0.0439 -6.2e-4,2.7999 -0.001,2.84245 -0.0576,1.96471 -1.43372,2.48551 -3.29534,2.48244 h -29.29713 v 9.54507 h 0.0185 v 15.5104 h 12.43322 v -15.5105 h 17.67499 5.50689 c 4.71449,0.2049 6.92634,-3.91126 6.92634,-6.71369 v -13.40963 c 0,-3.26247 -2.58741,-5.98582 -6.09773,-6.79519 -0.38866,-0.0896 -0.78504,-0.15808 -1.19417,-0.19869 -0.1079,-0.0129 -0.20793,-0.0437 -0.31705,-0.053 -0.21391,-0.0182 -0.4317,-0.005 -0.64993,0 h -0.19286 -26.71853 z"
       style="display:inline;fill:#018cc8;fill-opacity:1;stroke:none;stroke-width:1.24708271" />
    <path
       id="path154-7"
       d="m 162.90887,975.16656 c -4.18411,0.35958 -7.41259,3.38569 -7.41259,7.04561 v 28.58823 c 0,3.9039 3.67439,7.0456 8.26011,7.0456 h 34.42997 v -9.7644 h -26.74904 c -1.9041,0 -3.43797,-1.3133 -3.43797,-2.9343 v -4.8046 h 20.24778 v -7.28265 h -20.24778 v -4.74483 c 0,-1.62099 1.53387,-2.93433 3.43797,-2.93433 h 8.2601 2.63558 15.85336 v -10.21433 h -34.42997 c -0.2866,5e-5 -0.56857,-0.024 -0.84752,0 z"
       style="display:inline;fill:#018cc8;fill-opacity:1;stroke:none;stroke-width:1.25949764" />
    <path
       id="path154-7-5"
       d="m 210.59895,975.16656 c -4.18411,0.35958 -7.41259,3.38569 -7.41259,7.04561 v 28.58823 c 0,3.9039 3.67439,7.0456 8.26011,7.0456 h 34.42997 v -9.7644 H 219.1274 c -1.9041,0 -3.43797,-1.3133 -3.43797,-2.9343 v -4.8046 h 20.24778 v -7.28265 h -20.24778 v -4.74483 c 0,-1.62099 1.53387,-2.93433 3.43797,-2.93433 h 8.2601 2.63558 15.85336 v -10.21433 h -34.42997 c -0.2866,5e-5 -0.56857,-0.024 -0.84752,0 z"
       style="display:inline;fill:#018cc8;fill-opacity:1;stroke:none;stroke-width:1.25949764" />
    <path
       id="path144-3"
       d="m 250.88144,975.16656 v 0.80339 l -0.005,0.005 v 24.15305 h 11.39512 v -14.85276 h 4.46157 2.63261 8.26173 c 1.90385,0 3.43751,1.31593 3.43751,2.93682 v 16.93454 c 0,1.6209 -1.53371,2.9515 -3.43751,2.9368 h -26.74572 v 9.7622 h 34.42568 c 4.58513,0 8.25909,-3.1442 8.25909,-7.0479 v -28.58635 c 0,-3.6597 -3.22808,-6.68561 -7.41166,-7.04517 -0.27892,-0.024 -0.56086,5e-5 -0.84743,0 z"
       style="display:inline;fill:#018cc8;fill-opacity:1;stroke:none;stroke-width:1.25937951" />
    <path
       id="path154-7-5-5"
       d="m 462.44881,971.63102 c -4.18411,0.35958 -7.4126,3.38569 -7.4126,7.04561 v 28.58827 c 0,3.9039 3.6744,7.0456 8.26011,7.0456 h 34.42997 v -9.7644 h -26.74904 c -1.9041,0 -3.43797,-1.3133 -3.43797,-2.9343 v -4.8046 h 20.24778 v -7.28269 h -20.24778 v -4.74483 c 0,-1.62099 1.53387,-2.93433 3.43797,-2.93433 h 8.26011 2.63558 15.85336 v -10.21433 h -34.42997 c -0.2866,5e-5 -0.56857,-0.024 -0.84752,0 z"
       style="display:inline;fill:#333333;fill-opacity:1;stroke:none;stroke-width:1.25949764" />
    <path
       id="path140-6"
       d="m 367.10066,973.04578 c -4.17528,0.35958 -7.39648,3.38511 -7.39648,7.04492 v 35.6348 h 12.47656 v -16.39651 h 13.30859 v -7.33008 h -13.30859 v -3.55274 c 0,-1.62093 1.53159,-2.93554 3.43164,-2.93554 h 10.87305 c 1.90008,0 3.43164,1.31461 3.43164,2.93554 v 27.27933 h 12.47656 v -35.6348 c 0,-3.9038 -3.71107,-7.04492 -8.28711,-7.04492 h -26.1582 c -0.286,0 -0.56932,-0.024 -0.84766,0 z"
       style="display:inline;fill:#333333;fill-opacity:1;stroke:none;stroke-width:1.25815129" />
    <path
       id="path140-6-2"
       d="m 311.19997,973.04578 v 35.63282 c 0,3.6598 3.2212,6.6873 7.39648,7.0469 0.27834,0.024 0.56166,0 0.84766,0 h 34.35547 v -12.4766 h -15.70703 c -0.0378,10e-4 -0.0732,0.01 -0.11133,0.01 h -10.87305 c -1.90005,0 -3.43164,-1.3146 -3.43164,-2.9355 v -27.27738 z"
       style="display:inline;fill:#333333;fill-opacity:1;stroke:none;stroke-width:1.25815129" />
    <path
       id="path140-9"
       d="m 442.63972,972.04191 c 4.17528,0.35958 7.39649,3.38511 7.39649,7.04492 v 5.36719 h -15.10547 v 30.18558 h -12.47852 v -30.18558 h -15.05859 v -12.41211 h 34.40039 c 0.286,0 0.56736,-0.024 0.8457,0 z"
       style="display:inline;fill:#333333;fill-opacity:1;stroke:none;stroke-width:1.25815129" />
    <path
       id="path1202-7-0"
       d="m 502.7263,972.70707 14.61718,17.70508 -14.61718,17.83205 8.88086,6.8984 13.07812,-15.83983 13.07813,15.83983 8.88086,-6.8984 -14.61914,-17.83205 14.61914,-17.70508 h -14.78711 l -7.17188,8.75 -7.17383,-8.75 z"
       style="display:inline;fill:#333333;fill-opacity:1;stroke:none;stroke-width:1.02055085px;stroke-linecap:butt;stroke-linejoin:miter;stroke-opacity:1" />
  </g>
</svg>
